<svg width="40" height="40" viewBox="0 0 40 40" fill="none" xmlns="http://www.w3.org/2000/svg">
<path d="M27.2801 36.5195H12.7197C12.3961 36.5195 12.1338 36.2571 12.1338 35.9335C12.1338 35.6099 12.3961 35.3476 12.7197 35.3476H27.2801C27.6038 35.3476 27.8661 35.6099 27.8661 35.9335C27.8661 36.2571 27.6038 36.5195 27.2801 36.5195Z" fill="#03A06C"/>
<path d="M36.9875 25.3805C37.3111 25.3805 37.5734 25.1181 37.5734 24.7945V15.1469C37.5734 14.548 37.1289 14.5573 36.3593 14.5609V4.22656C36.3593 3.90297 36.0971 3.64062 35.7734 3.64062H29.5476C29.2239 3.64062 28.9617 3.90297 28.9617 4.22656C28.9617 4.55016 29.2239 4.8125 29.5476 4.8125H35.1875V14.5609H33.9328L33.933 7.88023C33.933 7.55664 33.6707 7.2943 33.3471 7.2943H6.65284C6.32925 7.2943 6.0669 7.55664 6.0669 7.88023L6.06706 14.5609H4.81245V1.17188H16.1174L19.5856 4.64086C19.6954 4.75078 19.8445 4.8125 20 4.8125H26.9945C27.3182 4.8125 27.5804 4.55016 27.5804 4.22656C27.5804 3.90297 27.3182 3.64062 26.9945 3.64062H20.2427L16.7745 0.171641C16.6646 0.0617969 16.5155 0 16.3601 0H4.22651C3.90292 0 3.64058 0.262344 3.64058 0.585938V14.5609C2.95026 14.5697 2.42651 14.548 2.42651 15.1469V39.4141C2.42651 39.7377 2.68886 40 3.01245 40H36.9875C37.3111 40 37.5734 39.7377 37.5734 39.4141V27.3477C37.5734 27.0241 37.3111 26.7617 36.9875 26.7617C36.6638 26.7617 36.4015 27.0241 36.4015 27.3477V38.8281H3.59839V15.7328H10.4523C10.7759 15.7328 11.0382 15.4705 11.0382 15.1469C11.0382 14.8233 10.7759 14.5609 10.4523 14.5609H7.23901V13.3055H32.7609V14.5609H13.0054C12.6818 14.5609 12.4195 14.8233 12.4195 15.1469C12.4195 15.4705 12.6818 15.7328 13.0054 15.7328H36.4015V24.7945C36.4015 25.1181 36.6639 25.3805 36.9875 25.3805ZM7.23878 8.46617H32.761V9.70469H7.23878V8.46617ZM7.23878 12.1315V10.8929H32.761V12.1315H7.23878Z" fill="#03A06C"/>
<path d="M12.1338 26.0854C12.1338 30.4228 15.6625 33.9515 20 33.9515C24.2607 33.9515 27.8661 30.3574 27.8661 26.0854C27.8661 21.748 24.3374 18.2192 20 18.2192C15.6625 18.2192 12.1338 21.748 12.1338 26.0854ZM24.2524 31.2516C21.8253 33.2529 18.1568 33.25 15.7324 31.2388V28.6467C15.7324 28.4169 15.8994 28.2081 16.1495 28.1229L18.7436 27.4688H21.2411L23.8352 28.1229C24.0853 28.208 24.2524 28.4169 24.2524 28.6467V31.2516ZM18.1592 24.473V23.6419C18.1592 22.6361 18.985 21.8178 20 21.8178C21.015 21.8178 21.8407 22.6362 21.8407 23.6419V24.473C21.8407 25.4773 21.0174 26.2946 20.0045 26.297H19.9954C18.9825 26.2946 18.1592 25.4773 18.1592 24.473ZM26.6942 26.0854C26.6942 27.5468 26.2221 28.8994 25.4242 30.0014V28.6467C25.4242 27.8997 24.9224 27.2385 24.1756 27.0012C24.1642 26.9976 24.1529 26.9944 24.1414 26.9915L22.2112 26.5048C22.7082 25.9704 23.0125 25.2565 23.0125 24.4728V23.6418C23.0125 21.9898 21.661 20.6458 19.9999 20.6458C18.3387 20.6458 16.9872 21.9898 16.9872 23.6418V24.4728C16.9872 25.2548 17.2904 25.9676 17.7857 26.5017L15.8433 26.9914C15.8318 26.9943 15.8205 26.9976 15.8092 27.0011C15.0622 27.2383 14.5604 27.8995 14.5604 28.6466V29.98C13.7718 28.8818 13.3056 27.5373 13.3056 26.0851C13.3056 22.3939 16.3086 19.3908 19.9999 19.3908C23.6912 19.3911 26.6942 22.3941 26.6942 26.0854Z" fill="#03A06C"/>
</svg>
