<svg width="113" height="33" viewBox="0 0 113 33" fill="none" xmlns="http://www.w3.org/2000/svg">
<path d="M103.71 0.000104165H9.40389C9.06013 0.000104165 8.72049 0.000104165 8.37764 0.0017067C8.09065 0.00330924 7.80594 0.0079646 7.51618 0.0118828C6.88671 0.0182143 6.25871 0.0655487 5.63765 0.153475C5.01746 0.243315 4.4167 0.41269 3.85569 0.65587C3.29536 0.901107 2.78337 1.21977 2.3383 1.60029C1.89089 1.97975 1.51794 2.41834 1.23379 2.89922C0.948855 3.37914 0.75128 3.89342 0.64789 4.42429C0.543516 4.95449 0.487352 5.49081 0.4799 6.02843C0.471201 6.2741 0.470282 6.52058 0.465698 6.76628V25.287C0.470282 25.5358 0.471201 25.7768 0.4799 26.0257C0.487354 26.5633 0.543518 27.0996 0.64789 27.6297C0.750995 28.1609 0.948581 28.6755 1.23379 29.1556C1.51781 29.6349 1.89081 30.0717 2.3383 30.4491C2.78169 30.8313 3.294 31.1502 3.85569 31.3935C4.4167 31.6374 5.01739 31.8078 5.63765 31.899C6.25881 31.9862 6.88675 32.0336 7.51618 32.0406C7.80594 32.0461 8.09065 32.0492 8.37764 32.0492C8.72048 32.0508 9.06015 32.0508 9.40389 32.0508H103.71C104.047 32.0508 104.39 32.0508 104.727 32.0492C105.012 32.0492 105.305 32.0461 105.591 32.0406C106.219 32.0339 106.846 31.9866 107.466 31.899C108.088 31.8071 108.691 31.6368 109.255 31.3935C109.816 31.15 110.328 30.8312 110.771 30.4491C111.217 30.0703 111.591 29.6338 111.878 29.1556C112.161 28.6751 112.357 28.1606 112.459 27.6297C112.563 27.0995 112.621 26.5633 112.633 26.0257C112.636 25.7768 112.636 25.5358 112.636 25.287C112.644 24.9959 112.644 24.7064 112.644 24.4106V7.6411C112.644 7.34767 112.644 7.05658 112.636 6.76628C112.636 6.52058 112.636 6.2741 112.633 6.02839C112.621 5.49073 112.563 4.95453 112.459 4.42426C112.357 3.89369 112.161 3.37945 111.878 2.89919C111.3 1.93532 110.382 1.15075 109.255 0.655798C108.691 0.413212 108.088 0.243882 107.466 0.153403C106.846 0.0650892 106.219 0.0177383 105.591 0.0117706C105.305 0.00786044 105.012 0.00316501 104.727 0.00160254C104.39 0 104.047 0 103.71 0V0.000104165Z" fill="#A6A6A6"/>
<path d="M8.74328 30.8166C8.4598 30.8166 8.18317 30.8135 7.90192 30.8083C7.31928 30.802 6.738 30.7598 6.16285 30.6821C5.62655 30.6054 5.10702 30.4625 4.62139 30.2584C4.14022 30.0559 3.70136 29.7904 3.32161 29.4721C2.93636 29.1575 2.61563 28.7927 2.37211 28.392C2.12592 27.9887 1.95553 27.5565 1.8669 27.1103C1.77118 26.6308 1.7194 26.146 1.71199 25.6601C1.70609 25.497 1.69836 24.9539 1.69836 24.9539V7.08711C1.69836 7.08711 1.70659 6.55235 1.71203 6.39524C1.71913 5.91005 1.77061 5.42601 1.86604 4.94732C1.95484 4.4999 2.12536 4.06639 2.37169 3.66179C2.6143 3.2614 2.93326 2.89627 3.31618 2.58057C3.69868 2.26187 4.13895 1.99503 4.62094 1.78976C5.10545 1.58626 5.62399 1.44444 6.15921 1.36906C6.73625 1.29061 7.31954 1.24819 7.90421 1.24217L8.74374 1.23273H104.361L105.21 1.24255C105.79 1.24827 106.368 1.29031 106.94 1.3683C107.48 1.44463 108.004 1.58744 108.494 1.79203C109.46 2.2057 110.245 2.86016 110.741 3.66368C110.983 4.06549 111.151 4.49546 111.239 4.93901C111.336 5.42164 111.39 5.90948 111.401 6.39864C111.403 6.61768 111.403 6.85296 111.403 7.08711C111.411 7.37714 111.411 7.65321 111.411 7.93153V24.1185C111.411 24.3995 111.411 24.6736 111.403 24.9501C111.403 25.2016 111.403 25.432 111.4 25.6691C111.389 26.1496 111.336 26.6287 111.241 27.1027C111.154 27.5521 110.985 27.9877 110.738 28.3943C110.493 28.7906 110.174 29.1523 109.793 29.4661C109.413 29.7861 108.974 30.0531 108.491 30.2569C108.003 30.4626 107.48 30.606 106.94 30.6821C106.364 30.7602 105.783 30.8024 105.2 30.8083C104.928 30.8135 104.643 30.8166 104.365 30.8166L103.357 30.8181L8.74328 30.8166Z" fill="black"/>
<path d="M20.131 16.1179C20.1396 15.4552 20.3156 14.8055 20.6427 14.2291C20.9699 13.6527 21.4375 13.1685 22.002 12.8214C21.6434 12.3092 21.1702 11.8876 20.6202 11.5902C20.0701 11.2929 19.4582 11.1278 18.8332 11.1083C17.5 10.9684 16.2075 11.9061 15.5281 11.9061C14.8356 11.9061 13.7895 11.1222 12.6631 11.1454C11.9345 11.1689 11.2245 11.3808 10.6021 11.7603C9.97975 12.1399 9.46632 12.6742 9.11185 13.3112C7.57635 15.9696 8.72169 19.8767 10.1926 22.0256C10.9285 23.0779 11.7886 24.2533 12.9139 24.2116C14.0152 24.1659 14.4265 23.5094 15.7558 23.5094C17.0728 23.5094 17.4587 24.2116 18.6069 24.1851C19.7886 24.1659 20.5331 23.1282 21.2432 22.066C21.772 21.3162 22.1788 20.4875 22.4488 19.6106C21.7622 19.3203 21.1764 18.8342 20.7642 18.2131C20.352 17.592 20.1318 16.8633 20.131 16.1179Z" fill="white"/>
<path d="M17.9623 9.69506C18.6066 8.92158 18.924 7.92741 18.8471 6.92368C17.8628 7.02706 16.9535 7.49753 16.3005 8.24133C15.9812 8.60469 15.7366 9.02742 15.5808 9.48535C15.425 9.94327 15.361 10.4274 15.3924 10.9101C15.8848 10.9152 16.3719 10.8085 16.817 10.598C17.2621 10.3875 17.6537 10.0788 17.9623 9.69506Z" fill="white"/>
<path d="M34.0517 21.5476H30.2936L29.3911 24.2125H27.7993L31.3589 14.3532H33.0127L36.5723 24.2125H34.9534L34.0517 21.5476ZM30.6828 20.3179H33.6617L32.1932 15.993H32.1521L30.6828 20.3179Z" fill="white"/>
<path d="M44.2599 20.6189C44.2599 22.8527 43.0643 24.2879 41.2601 24.2879C40.803 24.3118 40.3485 24.2065 39.9485 23.9841C39.5485 23.7617 39.2192 23.4311 38.9984 23.0302H38.9642V26.5906H37.4888V17.0244H38.917V18.22H38.9441C39.1751 17.8211 39.5099 17.4922 39.913 17.2685C40.316 17.0447 40.7722 16.9344 41.2329 16.9492C43.0573 16.9492 44.2599 18.3914 44.2599 20.6189ZM42.7433 20.6189C42.7433 19.1636 41.9912 18.2068 40.8437 18.2068C39.7164 18.2068 38.9581 19.1838 38.9581 20.6189C38.9581 22.0673 39.7164 23.0372 40.8437 23.0372C41.9912 23.0372 42.7433 22.0874 42.7433 20.6189Z" fill="white"/>
<path d="M52.1715 20.6189C52.1715 22.8527 50.9759 24.2879 49.1717 24.2879C48.7146 24.3118 48.2601 24.2065 47.8601 23.9841C47.4601 23.7616 47.1309 23.4311 46.91 23.0302H46.8759V26.5906H45.4004V17.0244H46.8286V18.22H46.8557C47.0867 17.8211 47.4215 17.4922 47.8246 17.2685C48.2276 17.0447 48.6838 16.9344 49.1445 16.9492C50.9689 16.9492 52.1715 18.3914 52.1715 20.6189ZM50.6549 20.6189C50.6549 19.1636 49.9028 18.2068 48.7553 18.2068C47.628 18.2068 46.8697 19.1838 46.8697 20.6189C46.8697 22.0673 47.628 23.0372 48.7553 23.0372C49.9028 23.0372 50.6549 22.0874 50.6549 20.6189H50.6549Z" fill="white"/>
<path d="M57.4003 21.4654C57.5096 22.4432 58.4594 23.0851 59.7573 23.0851C61.001 23.0851 61.8957 22.4431 61.8957 21.5616C61.8957 20.7963 61.3561 20.3381 60.0783 20.0241L58.8006 19.7162C56.9901 19.2789 56.1497 18.4323 56.1497 17.0584C56.1497 15.3573 57.6321 14.1888 59.7372 14.1888C61.8205 14.1888 63.2487 15.3573 63.2968 17.0584H61.8073C61.7182 16.0744 60.9048 15.4805 59.7162 15.4805C58.5276 15.4805 57.7143 16.0814 57.7143 16.956C57.7143 17.6531 58.2338 18.0632 59.5045 18.3772L60.5908 18.6439C62.6137 19.1223 63.4541 19.9349 63.4541 21.377C63.4541 23.2215 61.9849 24.3768 59.648 24.3768C57.4615 24.3768 55.9853 23.2487 55.8899 21.4654L57.4003 21.4654Z" fill="white"/>
<path d="M66.6386 15.3232V17.0243H68.0055V18.1927H66.6386V22.1555C66.6386 22.7711 66.9123 23.058 67.5132 23.058C67.6754 23.0552 67.8375 23.0438 67.9985 23.0239V24.1853C67.7284 24.2358 67.4538 24.2587 67.179 24.2536C65.7237 24.2536 65.1561 23.7069 65.1561 22.3129V18.1927H64.111V17.0243H65.1561V15.3232H66.6386Z" fill="white"/>
<path d="M68.7971 20.6188C68.7971 18.3571 70.1292 16.9359 72.2063 16.9359C74.2904 16.9359 75.6163 18.3571 75.6163 20.6188C75.6163 22.8866 74.2974 24.3016 72.2063 24.3016C70.1159 24.3016 68.7971 22.8866 68.7971 20.6188ZM74.1129 20.6188C74.1129 19.0673 73.4019 18.1516 72.2063 18.1516C71.0107 18.1516 70.3005 19.0743 70.3005 20.6188C70.3005 22.1764 71.0107 23.0851 72.2063 23.0851C73.4019 23.0851 74.1128 22.1764 74.1128 20.6188H74.1129Z" fill="white"/>
<path d="M76.8328 17.0244H78.24V18.2479H78.2742C78.3694 17.8657 78.5932 17.528 78.9081 17.2915C79.223 17.055 79.6097 16.9341 80.0032 16.9492C80.1732 16.9486 80.3428 16.967 80.5087 17.0042V18.3843C80.294 18.3187 80.0701 18.2886 79.8457 18.2952C79.6314 18.2865 79.4177 18.3243 79.2193 18.4059C79.021 18.4876 78.8426 18.6113 78.6966 18.7684C78.5505 18.9255 78.4402 19.1124 78.3731 19.3162C78.3061 19.5199 78.284 19.7358 78.3082 19.949V24.2126H76.8328L76.8328 17.0244Z" fill="white"/>
<path d="M87.3115 22.1012C87.113 23.4061 85.8422 24.3016 84.2163 24.3016C82.1252 24.3016 80.8273 22.9006 80.8273 20.6529C80.8273 18.3982 82.1322 16.9359 84.1543 16.9359C86.143 16.9359 87.3937 18.302 87.3937 20.4815V20.9871H82.3167V21.0762C82.2933 21.3408 82.3264 21.6073 82.4139 21.858C82.5013 22.1088 82.6412 22.3381 82.8241 22.5306C83.007 22.7232 83.2287 22.8747 83.4746 22.9749C83.7206 23.0752 83.985 23.122 84.2504 23.1123C84.5991 23.1449 84.949 23.0642 85.2481 22.882C85.5472 22.6998 85.7795 22.426 85.9104 22.1012L87.3115 22.1012ZM82.3237 19.9558H85.9174C85.9306 19.718 85.8946 19.4799 85.8115 19.2567C85.7284 19.0334 85.6 18.8297 85.4344 18.6584C85.2689 18.4871 85.0697 18.3519 84.8494 18.2612C84.6291 18.1705 84.3924 18.1263 84.1543 18.1315C83.914 18.13 83.6758 18.1762 83.4535 18.2673C83.2311 18.3584 83.029 18.4926 82.8588 18.6622C82.6887 18.8319 82.5537 19.0335 82.4619 19.2555C82.37 19.4776 82.3231 19.7156 82.3237 19.9559V19.9558Z" fill="white"/>
<path d="M29.6341 8.93468H30.2675C30.3766 8.94826 30.4872 8.9391 30.5926 8.90778C30.6979 8.87647 30.7956 8.82367 30.8795 8.75272C30.9634 8.68177 31.0318 8.59421 31.0801 8.49555C31.1285 8.39689 31.156 8.28928 31.1607 8.17949C31.1607 7.74259 30.832 7.46036 30.2745 7.46036C30.1628 7.44475 30.0491 7.45169 29.9401 7.48075C29.8311 7.50982 29.729 7.56043 29.6399 7.62959C29.5508 7.69876 29.4764 7.78508 29.4212 7.88345C29.366 7.98183 29.3311 8.09027 29.3185 8.20237H28.623C28.635 7.99888 28.6887 7.80003 28.7809 7.61821C28.873 7.43638 29.0016 7.27548 29.1586 7.1455C29.3157 7.01553 29.4978 6.91927 29.6936 6.86273C29.8894 6.80618 30.0948 6.79056 30.297 6.81683C31.2297 6.81683 31.8865 7.33902 31.8865 8.09071C31.8886 8.34254 31.8044 8.58749 31.6478 8.78469C31.4911 8.98189 31.2716 9.1194 31.0258 9.17426V9.23008C31.3172 9.24301 31.5916 9.37077 31.7891 9.58543C31.9865 9.8001 32.0909 10.0842 32.0795 10.3757C32.0579 10.5852 31.9948 10.7883 31.8937 10.9731C31.7926 11.1578 31.6557 11.3206 31.4909 11.4518C31.3261 11.5829 31.1368 11.6799 30.934 11.737C30.7313 11.794 30.5192 11.81 30.3102 11.7841C30.1007 11.8126 29.8877 11.7987 29.6837 11.7432C29.4797 11.6876 29.289 11.5916 29.123 11.4608C28.9569 11.3299 28.8189 11.167 28.7172 10.9817C28.6154 10.7965 28.552 10.5926 28.5308 10.3822H29.2371C29.2797 10.8354 29.6961 11.1278 30.3102 11.1278C30.9242 11.1278 31.3251 10.7994 31.3251 10.3365C31.3251 9.86706 30.9475 9.57786 30.2877 9.57786H29.6341V8.93468Z" fill="white"/>
<path d="M32.882 10.6583C32.882 10.0148 33.3619 9.64376 34.2117 9.59104L35.1801 9.53522V9.22663C35.1801 8.84903 34.9312 8.63582 34.4482 8.63582C34.0543 8.63582 33.7821 8.78042 33.703 9.03318H33.02C33.0921 8.41911 33.6705 8.02524 34.4815 8.02524C35.3778 8.02524 35.8833 8.47144 35.8833 9.22663V11.6693H35.2033V11.1669H35.1475C35.0342 11.3471 34.8751 11.4941 34.6864 11.5927C34.4978 11.6913 34.2863 11.7381 34.0737 11.7283C33.9236 11.7439 33.7719 11.7279 33.6284 11.6812C33.4849 11.6346 33.3527 11.5585 33.2404 11.4577C33.1281 11.3569 33.0382 11.2337 32.9765 11.096C32.9148 10.9583 32.8825 10.8092 32.882 10.6583ZM35.1801 10.3528V10.0539L34.307 10.1097C33.8147 10.1427 33.5914 10.3102 33.5914 10.6253C33.5914 10.9471 33.8705 11.1344 34.2543 11.1344C34.3668 11.1457 34.4804 11.1344 34.5884 11.101C34.6963 11.0676 34.7965 11.0128 34.8829 10.9398C34.9693 10.8669 35.0401 10.7774 35.0911 10.6765C35.1422 10.5757 35.1724 10.4656 35.1801 10.3528Z" fill="white"/>
<path d="M37.7557 8.68818V11.6694H37.0502V8.09427H39.4041V8.68814L37.7557 8.68818Z" fill="white"/>
<path d="M43.6802 9.8804C43.6802 11.0163 43.1057 11.7284 42.2032 11.7284C41.9816 11.7436 41.7604 11.6951 41.5654 11.5887C41.3705 11.4823 41.2101 11.3224 41.1029 11.1279H41.0471V12.8581H40.3416V8.0944H41.0208V8.68523H41.0735C41.1825 8.48392 41.3451 8.31666 41.5432 8.20194C41.7413 8.08721 41.9673 8.02947 42.1962 8.03511C43.1056 8.03508 43.6802 8.74413 43.6802 9.8804ZM42.9545 9.8804C42.9545 9.12522 42.597 8.66892 41.9992 8.66892C41.4054 8.66892 41.0339 9.1349 41.0339 9.8835C41.0339 10.6286 41.4053 11.095 41.9961 11.095C42.597 11.095 42.9545 10.6387 42.9545 9.8804Z" fill="white"/>
<path d="M44.6199 12.9499V12.3424C44.6963 12.3521 44.7732 12.3565 44.8502 12.3556C45.0005 12.3667 45.1496 12.3219 45.269 12.2298C45.3883 12.1378 45.4695 12.0049 45.4968 11.8566L45.5495 11.6826L44.2555 8.09427H45.0239L45.9202 10.934H45.976L46.8692 8.09427H47.6174L46.2846 11.8171C45.9791 12.687 45.6411 12.9661 44.9122 12.9661C44.8533 12.9661 44.6858 12.9595 44.6199 12.9499Z" fill="white"/>
<path d="M48.1671 10.6549H48.8696C48.9386 10.9701 49.234 11.1344 49.6472 11.1344C50.1171 11.1344 50.4055 10.9274 50.4055 10.6057C50.4055 10.261 50.1466 10.0967 49.6472 10.0967H49.1123V9.5485H49.6379C50.0644 9.5485 50.2815 9.38451 50.2815 9.08562C50.2815 8.82317 50.0714 8.62275 49.6379 8.62275C49.2433 8.62275 48.9549 8.79022 48.9091 9.07245H48.2291C48.28 8.74815 48.4561 8.45676 48.7195 8.26094C48.983 8.06513 49.3128 7.98053 49.6379 8.02535C50.4877 8.02535 50.9739 8.40953 50.9739 9.01352C50.9778 9.18172 50.9239 9.34618 50.8212 9.4794C50.7185 9.61263 50.5731 9.70655 50.4094 9.74545V9.80127C50.6043 9.82641 50.7831 9.92221 50.9121 10.0705C51.041 10.2188 51.111 10.4092 51.1088 10.6057C51.1088 11.2853 50.5304 11.735 49.6472 11.735C48.8665 11.735 48.2323 11.3771 48.1671 10.6549Z" fill="white"/>
<path d="M52.1248 11.6694V8.09427H52.8241V10.5533H52.8799L54.5275 8.09428H55.2269V11.6694H54.5275V9.19721H54.4748L52.8241 11.6694L52.1248 11.6694Z" fill="white"/>
<path d="M59.0797 8.68836H57.9539V11.6696H57.2475V8.68836H56.1217V8.09448H59.0797V8.68836Z" fill="white"/>
<path d="M62.8805 10.7041C62.7843 11.0308 62.5764 11.3134 62.2932 11.5025C62.0099 11.6915 61.6692 11.775 61.3305 11.7384C61.095 11.7446 60.8609 11.6995 60.6446 11.6062C60.4282 11.5129 60.2348 11.3736 60.0776 11.198C59.9205 11.0225 59.8035 10.8148 59.7346 10.5895C59.6658 10.3641 59.6469 10.1265 59.6791 9.8931C59.6477 9.65898 59.667 9.42084 59.7357 9.19483C59.8043 8.96881 59.9208 8.76019 60.0771 8.58308C60.2334 8.40597 60.4259 8.26451 60.6416 8.16828C60.8573 8.07204 61.0912 8.02328 61.3274 8.0253C62.3222 8.0253 62.9231 8.70492 62.9231 9.82757V10.0738H60.3986V10.1133C60.3874 10.2445 60.4038 10.3766 60.4467 10.5012C60.4897 10.6257 60.5582 10.7398 60.6478 10.8363C60.7375 10.9327 60.8463 11.0094 60.9674 11.0612C61.0885 11.1131 61.219 11.1391 61.3507 11.1375C61.5194 11.1577 61.6902 11.1272 61.8415 11.0501C61.9928 10.9729 62.1178 10.8525 62.2005 10.7041L62.8805 10.7041ZM60.3986 9.55196H62.2036C62.2125 9.43203 62.1962 9.31156 62.1558 9.19829C62.1154 9.08502 62.0518 8.98146 61.969 8.89424C61.8862 8.80703 61.7861 8.73809 61.675 8.69186C61.564 8.64564 61.4446 8.62314 61.3243 8.62581C61.2023 8.62415 61.0811 8.64697 60.968 8.69293C60.8549 8.73889 60.7522 8.80706 60.6659 8.8934C60.5796 8.97974 60.5115 9.0825 60.4656 9.19561C60.4196 9.30872 60.3969 9.42989 60.3986 9.55196H60.3986Z" fill="white"/>
<path d="M65.8717 8.09427H67.4836C68.183 8.09427 68.5932 8.4486 68.5932 9.00334C68.5942 9.17937 68.5348 9.35043 68.4249 9.4879C68.315 9.62536 68.1611 9.7209 67.9892 9.75853V9.81435C68.198 9.82754 68.3937 9.92042 68.536 10.0738C68.6782 10.2272 68.7562 10.4294 68.7537 10.6385C68.7537 11.2623 68.2846 11.6694 67.4999 11.6694H65.8717V8.09427ZM66.5711 8.63585V9.56159H67.2704C67.6969 9.56159 67.9008 9.39761 67.9008 9.09523C67.9008 8.81649 67.7232 8.63584 67.3487 8.63584L66.5711 8.63585ZM66.5711 10.0803V11.1278H67.4077C67.8248 11.1278 68.0481 10.9437 68.0481 10.6056C68.0481 10.2478 67.7954 10.0803 67.3193 10.0803L66.5711 10.0803Z" fill="white"/>
</svg>
